{
 "asset": {
  "version": "2.0",
  "generator": "gen_animated_morph_cube.py"
 },
 "scene": 0,
 "scenes": [
  {
   "nodes": [
    0
   ]
  }
 ],
 "nodes": [
  {
   "name": "MorphCube",
   "mesh": 0
  }
 ],
 "meshes": [
  {
   "name": "MorphCube",
   "weights": [
    0.0
   ],
   "extras": {
    "targetNames": [
     "bulge"
    ]
   },
   "primitives": [
    {
     "attributes": {
      "POSITION": 0,
      "NORMAL": 1
     },
     "targets": [
      {
       "POSITION": 2,
       "NORMAL": 3
      }
     ],
     "indices": 4
    }
   ]
  }
 ],
 "animations": [
  {
   "name": "Bulge",
   "samplers": [
    {
     "input": 5,
     "output": 6,
     "interpolation": "LINEAR"
    }
   ],
   "channels": [
    {
     "sampler": 0,
     "target": {
      "node": 0,
      "path": "weights"
     }
    }
   ]
  }
 ],
 "accessors": [
  {
   "bufferView": 0,
   "componentType": 5126,
   "count": 8,
   "type": "VEC3",
   "min": [
    -0.5,
    -0.5,
    -0.5
   ],
   "max": [
    0.5,
    0.5,
    0.5
   ]
  },
  {
   "bufferView": 1,
   "componentType": 5126,
   "count": 8,
   "type": "VEC3"
  },
  {
   "bufferView": 2,
   "componentType": 5126,
   "count": 8,
   "type": "VEC3",
   "min": [
    0,
    0,
    0
   ],
   "max": [
    0,
    1,
    0
   ]
  },
  {
   "bufferView": 3,
   "componentType": 5126,
   "count": 8,
   "type": "VEC3"
  },
  {
   "bufferView": 4,
   "componentType": 5123,
   "count": 36,
   "type": "SCALAR"
  },
  {
   "bufferView": 5,
   "componentType": 5126,
   "count": 3,
   "type": "SCALAR",
   "min": [
    0.0
   ],
   "max": [
    1.0
   ]
  },
  {
   "bufferView": 6,
   "componentType": 5126,
   "count": 3,
   "type": "SCALAR"
  }
 ],
 "bufferViews": [
  {
   "buffer": 0,
   "byteOffset": 0,
   "byteLength": 96,
   "target": 34962
  },
  {
   "buffer": 0,
   "byteOffset": 96,
   "byteLength": 96,
   "target": 34962
  },
  {
   "buffer": 0,
   "byteOffset": 192,
   "byteLength": 96,
   "target": 34962
  },
  {
   "buffer": 0,
   "byteOffset": 288,
   "byteLength": 96,
   "target": 34962
  },
  {
   "buffer": 0,
   "byteOffset": 384,
   "byteLength": 72,
   "target": 34963
  },
  {
   "buffer": 0,
   "byteOffset": 456,
   "byteLength": 12
  },
  {
   "buffer": 0,
   "byteOffset": 468,
   "byteLength": 12
  }
 ],
 "buffers": [
  {
   "byteLength": 480,
   "uri": "data:application/octet-stream;base64,"
  }
 ]
}