{
 "asset": {
  "version": "2.0",
  "generator": "gen_box_animated.py"
 },
 "scene": 0,
 "scenes": [
  {
   "nodes": [
    0
   ]
  }
 ],
 "nodes": [
  {
   "name": "Root",
   "children": [
    1
   ],
   "translation": [
    0,
    0,
    0
   ]
  },
  {
   "name": "AnimatedBox",
   "mesh": 0,
   "translation": [
    0,
    0,
    0
   ]
  }
 ],
 "meshes": [
  {
   "name": "Box",
   "primitives": [
    {
     "attributes": {
      "POSITION": 0
     },
     "indices": 1
    }
   ]
  }
 ],
 "animations": [
  {
   "name": "BoxMove",
   "samplers": [
    {
     "input": 2,
     "output": 3,
     "interpolation": "LINEAR"
    },
    {
     "input": 2,
     "output": 4,
     "interpolation": "LINEAR"
    }
   ],
   "channels": [
    {
     "sampler": 0,
     "target": {
      "node": 1,
      "path": "translation"
     }
    },
    {
     "sampler": 1,
     "target": {
      "node": 1,
      "path": "rotation"
     }
    }
   ]
  }
 ],
 "accessors": [
  {
   "bufferView": 0,
   "componentType": 5126,
   "count": 8,
   "type": "VEC3",
   "min": [
    -0.5,
    -0.5,
    -0.5
   ],
   "max": [
    0.5,
    0.5,
    0.5
   ]
  },
  {
   "bufferView": 1,
   "componentType": 5123,
   "count": 36,
   "type": "SCALAR"
  },
  {
   "bufferView": 2,
   "componentType": 5126,
   "count": 3,
   "type": "SCALAR",
   "min": [
    0.0
   ],
   "max": [
    1.0
   ]
  },
  {
   "bufferView": 3,
   "componentType": 5126,
   "count": 3,
   "type": "VEC3"
  },
  {
   "bufferView": 4,
   "componentType": 5126,
   "count": 3,
   "type": "VEC4"
  }
 ],
 "bufferViews": [
  {
   "buffer": 0,
   "byteOffset": 0,
   "byteLength": 96,
   "target": 34962
  },
  {
   "buffer": 0,
   "byteOffset": 96,
   "byteLength": 72,
   "target": 34963
  },
  {
   "buffer": 0,
   "byteOffset": 168,
   "byteLength": 12
  },
  {
   "buffer": 0,
   "byteOffset": 180,
   "byteLength": 36
  },
  {
   "buffer": 0,
   "byteOffset": 216,
   "byteLength": 48
  }
 ],
 "buffers": [
  {
   "byteLength": 264,
   "uri": "data:application/octet-stream;base64,"
  }
 ]
}