{
 "asset": {
  "version": "2.0",
  "generator": "gen_morph_stress.py"
 },
 "scene": 0,
 "scenes": [
  {
   "nodes": [
    0
   ]
  }
 ],
 "nodes": [
  {
   "name": "MorphStress",
   "mesh": 0
  }
 ],
 "meshes": [
  {
   "name": "MorphStress",
   "weights": [
    0.0,
    0.0,
    0.0,
    0.0,
    0.0,
    0.0,
    0.0,
    0.0,
    0.0,
    0.0,
    0.0,
    0.0,
    0.0,
    0.0,
    0.0,
    0.0
   ],
   "extras": {
    "targetNames": [
     "row_0",
     "row_1",
     "row_2",
     "row_3",
     "row_4",
     "row_5",
     "row_6",
     "row_7",
     "row_8",
     "row_9",
     "row_10",
     "row_11",
     "row_12",
     "row_13",
     "row_14",
     "row_15"
    ]
   },
   "primitives": [
    {
     "attributes": {
      "POSITION": 0,
      "NORMAL": 1
     },
     "targets": [
      {
       "POSITION": 3
      },
      {
       "POSITION": 4
      },
      {
       "POSITION": 5
      },
      {
       "POSITION": 6
      },
      {
       "POSITION": 7
      },
      {
       "POSITION": 8
      },
      {
       "POSITION": 9
      },
      {
       "POSITION": 10
      },
      {
       "POSITION": 11
      },
      {
       "POSITION": 12
      },
      {
       "POSITION": 13
      },
      {
       "POSITION": 14
      },
      {
       "POSITION": 15
      },
      {
       "POSITION": 16
      },
      {
       "POSITION": 17
      },
      {
       "POSITION": 18
      }
     ],
     "indices": 2
    }
   ]
  }
 ],
 "animations": [
  {
   "name": "RampAll",
   "samplers": [
    {
     "input": 19,
     "output": 20,
     "interpolation": "LINEAR"
    }
   ],
   "channels": [
    {
     "sampler": 0,
     "target": {
      "node": 0,
      "path": "weights"
     }
    }
   ]
  }
 ],
 "accessors": [
  {
   "bufferView": 0,
   "componentType": 5126,
   "count": 256,
   "type": "VEC3",
   "min": [
    -0.5,
    0.0,
    -0.5
   ],
   "max": [
    0.5,
    0.0,
    0.5
   ]
  },
  {
   "bufferView": 1,
   "componentType": 5126,
   "count": 256,
   "type": "VEC3"
  },
  {
   "bufferView": 2,
   "componentType": 5123,
   "count": 1350,
   "type": "SCALAR"
  },
  {
   "bufferView": 3,
   "componentType": 5126,
   "count": 256,
   "type": "VEC3",
   "min": [
    0,
    0,
    0
   ],
   "max": [
    0,
    0.5,
    0
   ]
  },
  {
   "bufferView": 4,
   "componentType": 5126,
   "count": 256,
   "type": "VEC3",
   "min": [
    0,
    0,
    0
   ],
   "max": [
    0,
    0.5,
    0
   ]
  },
  {
   "bufferView": 5,
   "componentType": 5126,
   "count": 256,
   "type": "VEC3",
   "min": [
    0,
    0,
    0
   ],
   "max": [
    0,
    0.5,
    0
   ]
  },
  {
   "bufferView": 6,
   "componentType": 5126,
   "count": 256,
   "type": "VEC3",
   "min": [
    0,
    0,
    0
   ],
   "max": [
    0,
    0.5,
    0
   ]
  },
  {
   "bufferView": 7,
   "componentType": 5126,
   "count": 256,
   "type": "VEC3",
   "min": [
    0,
    0,
    0
   ],
   "max": [
    0,
    0.5,
    0
   ]
  },
  {
   "bufferView": 8,
   "componentType": 5126,
   "count": 256,
   "type": "VEC3",
   "min": [
    0,
    0,
    0
   ],
   "max": [
    0,
    0.5,
    0
   ]
  },
  {
   "bufferView": 9,
   "componentType": 5126,
   "count": 256,
   "type": "VEC3",
   "min": [
    0,
    0,
    0
   ],
   "max": [
    0,
    0.5,
    0
   ]
  },
  {
   "bufferView": 10,
   "componentType": 5126,
   "count": 256,
   "type": "VEC3",
   "min": [
    0,
    0,
    0
   ],
   "max": [
    0,
    0.5,
    0
   ]
  },
  {
   "bufferView": 11,
   "componentType": 5126,
   "count": 256,
   "type": "VEC3",
   "min": [
    0,
    0,
    0
   ],
   "max": [
    0,
    0.5,
    0
   ]
  },
  {
   "bufferView": 12,
   "componentType": 5126,
   "count": 256,
   "type": "VEC3",
   "min": [
    0,
    0,
    0
   ],
   "max": [
    0,
    0.5,
    0
   ]
  },
  {
   "bufferView": 13,
   "componentType": 5126,
   "count": 256,
   "type": "VEC3",
   "min": [
    0,
    0,
    0
   ],
   "max": [
    0,
    0.5,
    0
   ]
  },
  {
   "bufferView": 14,
   "componentType": 5126,
   "count": 256,
   "type": "VEC3",
   "min": [
    0,
    0,
    0
   ],
   "max": [
    0,
    0.5,
    0
   ]
  },
  {
   "bufferView": 15,
   "componentType": 5126,
   "count": 256,
   "type": "VEC3",
   "min": [
    0,
    0,
    0
   ],
   "max": [
    0,
    0.5,
    0
   ]
  },
  {
   "bufferView": 16,
   "componentType": 5126,
   "count": 256,
   "type": "VEC3",
   "min": [
    0,
    0,
    0
   ],
   "max": [
    0,
    0.5,
    0
   ]
  },
  {
   "bufferView": 17,
   "componentType": 5126,
   "count": 256,
   "type": "VEC3",
   "min": [
    0,
    0,
    0
   ],
   "max": [
    0,
    0.5,
    0
   ]
  },
  {
   "bufferView": 18,
   "componentType": 5126,
   "count": 256,
   "type": "VEC3",
   "min": [
    0,
    0,
    0
   ],
   "max": [
    0,
    0.5,
    0
   ]
  },
  {
   "bufferView": 19,
   "componentType": 5126,
   "count": 2,
   "type": "SCALAR",
   "min": [
    0.0
   ],
   "max": [
    1.0
   ]
  },
  {
   "bufferView": 20,
   "componentType": 5126,
   "count": 32,
   "type": "SCALAR"
  }
 ],
 "bufferViews": [
  {
   "buffer": 0,
   "byteOffset": 0,
   "byteLength": 3072,
   "target": 34962
  },
  {
   "buffer": 0,
   "byteOffset": 3072,
   "byteLength": 3072,
   "target": 34962
  },
  {
   "buffer": 0,
   "byteOffset": 6144,
   "byteLength": 2700,
   "target": 34963
  },
  {
   "buffer": 0,
   "byteOffset": 8844,
   "byteLength": 3072,
   "target": 34962
  },
  {
   "buffer": 0,
   "byteOffset": 11916,
   "byteLength": 3072,
   "target": 34962
  },
  {
   "buffer": 0,
   "byteOffset": 14988,
   "byteLength": 3072,
   "target": 34962
  },
  {
   "buffer": 0,
   "byteOffset": 18060,
   "byteLength": 3072,
   "target": 34962
  },
  {
   "buffer": 0,
   "byteOffset": 21132,
   "byteLength": 3072,
   "target": 34962
  },
  {
   "buffer": 0,
   "byteOffset": 24204,
   "byteLength": 3072,
   "target": 34962
  },
  {
   "buffer": 0,
   "byteOffset": 27276,
   "byteLength": 3072,
   "target": 34962
  },
  {
   "buffer": 0,
   "byteOffset": 30348,
   "byteLength": 3072,
   "target": 34962
  },
  {
   "buffer": 0,
   "byteOffset": 33420,
   "byteLength": 3072,
   "target": 34962
  },
  {
   "buffer": 0,
   "byteOffset": 36492,
   "byteLength": 3072,
   "target": 34962
  },
  {
   "buffer": 0,
   "byteOffset": 39564,
   "byteLength": 3072,
   "target": 34962
  },
  {
   "buffer": 0,
   "byteOffset": 42636,
   "byteLength": 3072,
   "target": 34962
  },
  {
   "buffer": 0,
   "byteOffset": 45708,
   "byteLength": 3072,
   "target": 34962
  },
  {
   "buffer": 0,
   "byteOffset": 48780,
   "byteLength": 3072,
   "target": 34962
  },
  {
   "buffer": 0,
   "byteOffset": 51852,
   "byteLength": 3072,
   "target": 34962
  },
  {
   "buffer": 0,
   "byteOffset": 54924,
   "byteLength": 3072,
   "target": 34962
  },
  {
   "buffer": 0,
   "byteOffset": 57996,
   "byteLength": 8
  },
  {
   "buffer": 0,
   "byteOffset": 58004,
   "byteLength": 128
  }
 ],
 "buffers": [
  {
   "byteLength": 58132,
   "uri": "data:application/octet-stream;base64,"
  }
 ]
}