<?xml version="1.0" encoding="UTF-8"?>
<svg version="1.1" xmlns="http://www.w3.org/2000/svg" viewBox="0 0 256 256" width="256" height="256">
<path d="M0 0 C0.87918122 0.00054477 1.75836245 0.00108953 2.66418552 0.00165081 C3.67229786 -0.00254368 4.68041019 -0.00673817 5.71907139 -0.01105976 C7.38434879 -0.0026305 7.38434879 -0.0026305 9.08326817 0.00596905 C10.83212063 0.00312153 10.83212063 0.00312153 12.61630344 0.00021648 C16.48695095 -0.00350123 20.3574126 0.00722776 24.22804356 0.01842022 C26.90843071 0.01961165 29.58880996 0.02011612 32.26919651 0.01980877 C37.89409305 0.02074596 43.51893572 0.02943649 49.14381504 0.04307842 C55.64897327 0.0587969 62.15407244 0.06407681 68.65924829 0.06334287 C74.91270864 0.06273258 81.16614974 0.06783862 87.4196043 0.07613468 C90.08261149 0.0793239 92.74562042 0.08128935 95.40862942 0.08202839 C99.12702894 0.08418971 102.84535343 0.09292983 106.56373692 0.1036253 C107.67189762 0.10317211 108.78005833 0.10271893 109.92179966 0.10225201 C111.4381979 0.10864948 111.4381979 0.10864948 112.98523045 0.1151762 C113.86478869 0.11685205 114.74434694 0.11852789 115.65055847 0.12025452 C117.88819981 0.24888897 117.88819981 0.24888897 120.88819981 1.24888897 C131.23084859 16.96971511 127.86229378 44.57616165 124.88819981 62.24888897 C123.89063568 66.4471936 123.0122008 70.12488798 119.88819981 73.24888897 C116.89385304 74.26391071 114.1001119 74.38045166 110.95436192 74.39605999 C109.96177372 74.40321529 108.96918552 74.4103706 107.9465189 74.41774273 C106.3224361 74.42177608 106.3224361 74.42177608 104.66554356 74.42589092 C102.94792316 74.43574772 102.94792316 74.43574772 101.19560337 74.44580364 C97.40563486 74.46551912 93.61570586 74.47719261 89.82569981 74.48717022 C88.53251835 74.49124575 87.23933689 74.49532127 85.90696812 74.4995203 C79.773118 74.51822042 73.63928771 74.53279149 67.50541496 74.54113227 C60.42713101 74.55091704 53.34915873 74.57727648 46.27098465 74.61763316 C40.13711907 74.65140585 34.0033849 74.66327474 27.8694315 74.66733646 C25.26025872 74.67221943 22.65108969 74.6838816 20.04197788 74.70237446 C16.39801454 74.72660612 12.75487453 74.72583024 9.11085606 74.71885967 C8.02813419 74.73166973 6.94541233 74.74447979 5.82988071 74.75767803 C-1.45586491 74.70670938 -1.45586491 74.70670938 -4.75071621 72.4070158 C-10.22074745 63.73376616 -8.27314876 49.23128965 -8.24217129 39.28990459 C-8.23680342 37.25011553 -8.24216296 35.21054652 -8.24851894 33.17076397 C-8.25382842 26.62869703 -8.13044056 20.09517387 -7.79148769 13.56138897 C-7.73460781 12.46439678 -7.67772793 11.36740459 -7.61912441 10.23717022 C-6.8945412 5.96917287 -4.80019506 0.56573326 0 0 Z " fill="#116DD5" transform="translate(98.11180019378662,90.75111103057861)"/>
<path d="M0 0 C29.92789863 -0.10458993 59.85826087 -0.13798267 89.78424072 0.26345825 C92.34354742 0.29613743 94.90292445 0.32370986 97.46234131 0.34616089 C101.02995236 0.37902452 104.59677277 0.43090796 108.1640625 0.48828125 C109.7535672 0.49787369 109.7535672 0.49787369 111.37518311 0.50765991 C112.82456268 0.5373436 112.82456268 0.5373436 114.30322266 0.56762695 C115.1429361 0.57873001 115.98264954 0.58983307 116.84780884 0.60127258 C119.51217908 1.09488927 120.4301509 1.81146059 122 4 C122.02486742 6.69500669 121.86293592 9.03789467 121.5 11.6875 C121.40251465 12.46480469 121.3050293 13.24210938 121.20458984 14.04296875 C120.27775824 20.91037516 118.99555076 27.70892097 117.625 34.5 C117.33012695 35.98439575 117.33012695 35.98439575 117.02929688 37.4987793 C113.68184262 53.31815738 113.68184262 53.31815738 109 58 C104.79603359 59.38267219 100.49486428 59.14307743 96.1171875 59.1328125 C94.79815178 59.13506332 94.79815178 59.13506332 93.45246887 59.13735962 C90.59326632 59.13971542 87.73418999 59.13346664 84.875 59.125 C83.90680328 59.12278442 82.93860657 59.12056885 81.94107056 59.11828613 C75.29383494 59.10035735 68.64699683 59.05837956 62 59 C60.84881683 58.99063416 60.84881683 58.99063416 59.67437744 58.9810791 C55.34403719 58.9424516 51.0165166 58.86238361 46.6875 58.75 C45.66575684 58.73598145 44.64401367 58.72196289 43.59130859 58.70751953 C34.42825649 58.3896984 29.64621698 54.13908572 23.42578125 47.73046875 C12.79689913 35.76655796 2.50959742 19.80700573 -1 4 C-0.70573528 2.65750338 -0.37722446 1.32158639 0 0 Z " fill="#0F2C59" transform="translate(33,173)"/>
<path d="M0 0 C4.90993768 -0.07341695 9.81933688 -0.12098206 14.72973633 -0.15106201 C15.96578613 -0.16411377 17.20183594 -0.17716553 18.4753418 -0.19061279 C19.61374512 -0.19174072 20.75214844 -0.19286865 21.92504883 -0.19403076 C22.90747559 -0.19813965 23.88990234 -0.20224854 24.90209961 -0.20648193 C27.84163129 0.05773072 29.96712214 0.72607836 32.60473633 2.03643799 C35.70415452 5.96722953 36.81820155 10.57365421 38.04223633 15.34893799 C38.25323975 16.16056396 38.46424316 16.97218994 38.68164062 17.80841064 C45.55401503 45.30307351 45.55401503 45.30307351 44.60473633 55.03643799 C43.07030837 57.01924259 42.15658956 57.92235284 39.67601013 58.43516541 C38.5722982 58.45181999 38.5722982 58.45181999 37.44628906 58.46881104 C36.59605164 58.48860016 35.74581421 58.50838928 34.86981201 58.52877808 C33.46822845 58.53837051 33.46822845 58.53837051 32.03833008 58.54815674 C31.04424133 58.56615326 30.05015259 58.58414978 29.02593994 58.60269165 C25.69807869 58.65818682 22.37039607 58.69144788 19.04223633 58.72393799 C16.71320555 58.75697228 14.38418536 58.79076011 12.05517578 58.82525635 C-17.75844228 59.22806698 -47.57981115 59.12979983 -77.39526367 59.03643799 C-78.74487463 54.71555848 -77.55517647 51.74734403 -75.95776367 47.66143799 C-75.54723755 46.60013672 -75.54723755 46.60013672 -75.12841797 45.51739502 C-68.98309073 30.15665251 -57.97458333 11.31635233 -43.77734375 1.97149658 C-40.40412312 0.64737698 -37.10314569 0.67846028 -33.52807617 0.62237549 C-32.35882599 0.59312233 -32.35882599 0.59312233 -31.16595459 0.5632782 C-28.61750084 0.50259698 -26.06904112 0.45631984 -23.52026367 0.41143799 C-21.76260708 0.37490098 -20.00495733 0.33803325 -18.24731445 0.30084229 C-12.16517084 0.17821252 -6.08264716 0.09253237 0 0 Z " fill="#116DD5" transform="translate(110.395263671875,23.96356201171875)"/>
<path d="M0 0 C2.13017871 -0.03939605 4.26038543 -0.07732639 6.390625 -0.11328125 C7.81109131 -0.15799561 7.81109131 -0.15799561 9.26025391 -0.20361328 C10.54295166 -0.21497314 10.54295166 -0.21497314 11.8515625 -0.2265625 C12.56876465 -0.24114502 13.2859668 -0.25572754 14.02490234 -0.27075195 C17.00274125 0.4322576 18.11389498 1.83322739 20.015625 4.19921875 C20.52355957 7.15893555 20.52355957 7.15893555 20.53320312 10.6484375 C20.54581177 11.95659424 20.55842041 13.26475098 20.57141113 14.61254883 C20.56425133 16.03727762 20.55604734 17.46200149 20.546875 18.88671875 C20.54957049 20.35115822 20.55345338 21.81559594 20.55847168 23.2800293 C20.56436419 26.34669055 20.55581246 29.41288524 20.53710938 32.47949219 C20.5143191 36.40735511 20.52744363 40.33412481 20.55139923 44.26194763 C20.56586441 47.28519912 20.56124811 50.30819208 20.55088806 53.33145142 C20.54822272 54.77951182 20.55148382 56.22759581 20.56080627 57.67562866 C20.57098159 59.70041445 20.55271832 61.72528269 20.53320312 63.75 C20.53002075 64.90153564 20.52683838 66.05307129 20.52355957 67.23950195 C19.90856592 70.82304822 18.85837939 72.00349444 16.015625 74.19921875 C13.80957031 74.66918945 13.80957031 74.66918945 11.34375 74.625 C10.38774902 74.61726563 9.43174805 74.60953125 8.44677734 74.6015625 C6.87210693 74.55708984 6.87210693 74.55708984 5.265625 74.51171875 C4.16557129 74.49625 3.06551758 74.48078125 1.93212891 74.46484375 C-1.28500657 74.41265283 -4.50094011 74.33948916 -7.71740723 74.25640869 C-10.18618918 74.19412748 -12.65506379 74.13827175 -15.12402344 74.08349609 C-26.74517645 73.82459674 -38.3649566 73.52647728 -49.984375 73.19921875 C-59.91575259 53.73028536 -58.24022894 27.18082852 -53.0546875 6.49609375 C-51.984375 3.19921875 -51.984375 3.19921875 -49.984375 1.19921875 C-47.10945721 0.9515837 -44.32493369 0.82520809 -41.4453125 0.78515625 C-40.57980774 0.76556351 -39.71430298 0.74597076 -38.8225708 0.7257843 C-36.00160373 0.66487441 -33.18064673 0.61863157 -30.359375 0.57421875 C-28.43537799 0.53915299 -26.51138705 0.50375238 -24.58740234 0.46801758 C-20.78946354 0.39972931 -16.99149831 0.33870232 -13.19335938 0.28271484 C-8.79452802 0.21635919 -4.39783571 0.11393656 0 0 Z " fill="#0F2C59" transform="translate(56.984375,90.80078125)"/>
<path d="M0 0 C1.34762519 0.00187211 2.69525107 0.00329225 4.0428772 0.00428772 C7.53782126 0.00805059 11.03272173 0.01782515 14.52764893 0.0289917 C18.11478079 0.03934225 21.70191991 0.04381413 25.2890625 0.04882812 C32.28908 0.05945508 39.28906836 0.07645347 46.2890625 0.09765625 C43.96788804 12.23004552 37.03424679 23.6582129 29.2890625 33.09765625 C28.63164062 33.9189502 28.63164062 33.9189502 27.9609375 34.75683594 C10.85122835 56.06171415 10.85122835 56.06171415 2.13256836 57.68554688 C-1.95118234 58.12341584 -5.99081349 58.35617052 -10.09375 58.484375 C-11.25969193 58.52266167 -11.25969193 58.52266167 -12.44918823 58.5617218 C-14.08112922 58.61340598 -15.71314197 58.66286818 -17.34521484 58.71020508 C-19.83608129 58.78516058 -22.32608059 58.87580704 -24.81640625 58.96679688 C-26.40882503 59.01528947 -28.00127259 59.06284768 -29.59375 59.109375 C-30.33344025 59.1384343 -31.07313049 59.16749359 -31.8352356 59.19743347 C-35.9420845 59.29716031 -39.02177333 58.94766224 -42.7109375 57.09765625 C-42.02536097 51.48496924 -40.78296154 46.13742279 -39.3984375 40.66015625 C-37.115266 31.48538794 -35.48557476 22.28894878 -34.23120117 12.91821289 C-34.01814331 11.47369751 -34.01814331 11.47369751 -33.80078125 10 C-33.62857056 8.72370728 -33.62857056 8.72370728 -33.45288086 7.42163086 C-32.47104199 4.34623625 -31.21868583 3.12714023 -28.7109375 1.09765625 C-25.7749939 0.49171448 -25.7749939 0.49171448 -22.38037109 0.35375977 C-20.50874298 0.27087204 -20.50874298 0.27087204 -18.5993042 0.18630981 C-12.39736769 0.04490757 -6.20359086 -0.02537038 0 0 Z " fill="#116DD5" transform="translate(199.7109375,172.90234375)"/>
<path d="M0 0 C4.96215458 -0.02490464 9.92427195 -0.04295606 14.88647461 -0.05493164 C16.57105138 -0.05992943 18.25562388 -0.06672989 19.94018555 -0.07543945 C22.37549906 -0.08770622 24.81075474 -0.09327398 27.24609375 -0.09765625 C27.98709824 -0.10281754 28.72810272 -0.10797882 29.49156189 -0.11329651 C40.79640588 -0.11448232 46.57048937 1.12522111 55 9 C55.5057959 9.46486816 56.0115918 9.92973633 56.53271484 10.40869141 C71.20528974 24.00036429 82.77279239 39.83664025 89 59 C80.41964662 58.89206473 71.83937461 58.77934731 63.25916386 58.66066074 C59.27428305 58.60568688 55.28939465 58.55231032 51.30444336 58.50268555 C47.45293302 58.45466205 43.60150284 58.40231034 39.75008965 58.34705925 C38.28664607 58.3268063 36.82318067 58.30806717 35.35969734 58.29092598 C14.60605735 58.04514627 14.60605735 58.04514627 10.53515625 55.39599609 C8.53488678 52.27407425 7.95773774 49.26752107 7.4375 45.6640625 C7.31947021 44.94826019 7.20144043 44.23245789 7.07983398 43.4949646 C6.70454707 41.20713635 6.35078552 38.91670209 6 36.625 C5.53164901 33.63619818 5.05215201 30.64944754 4.5625 27.6640625 C4.38497192 26.56762421 4.38497192 26.56762421 4.20385742 25.44903564 C3.18162306 19.42755171 1.58072886 13.73811402 -0.328125 7.93115234 C-1.03380102 4.85253816 -0.86723587 3.00544482 0 0 Z " fill="#92CEEE" transform="translate(158,25)"/>
<path d="M0 0 C10.90731627 -0.06221889 21.78862861 0.09614476 32.69055176 0.42779541 C65.77258033 1.40899282 98.93637106 1.66357881 132 0 C128.87331357 3.53687055 125.49364883 5.51638871 121.25 7.4375 C120.59386719 7.7375293 119.93773437 8.03755859 119.26171875 8.34667969 C102.34924772 15.86422492 84.73719965 19.61057402 66.25 19.4375 C65.55511475 19.43445862 64.86022949 19.43141724 64.14428711 19.42828369 C52.73291241 19.35473152 41.93343665 18.43697028 31 15 C30.31099609 14.78569336 29.62199219 14.57138672 28.91210938 14.35058594 C18.67626966 11.05535544 9.3365831 6.28536457 0 1 C0 0.67 0 0.34 0 0 Z " fill="#0F2C59" transform="translate(62,236)"/>
<path d="M0 0 C0.78745605 0.23106445 1.57491211 0.46212891 2.38623047 0.70019531 C14.56423079 4.32283713 25.84624374 8.92617233 37 15 C37 15.33 37 15.66 37 16 C-5.9 16 -48.8 16 -93 16 C-88.65547163 12.5243773 -85.11521506 10.35161188 -80.1875 8.0625 C-79.44483887 7.71622559 -78.70217773 7.36995117 -77.93701172 7.01318359 C-54.1432 -3.79394857 -25.31667193 -7.63561656 0 0 Z " fill="#92CEEE" transform="translate(156,4)"/>
<path d="M0 0 C5.94 0 11.88 0 18 0 C21.81108453 11.95294694 23.38858587 22.99556903 23.375 35.5625 C23.37584595 37.53536987 23.37584595 37.53536987 23.37670898 39.5480957 C23.24853285 50.95296991 21.59907577 61.20277269 18 72 C15.02077407 72.02683987 12.04178705 72.04676037 9.0625 72.0625 C8.21236328 72.07087891 7.36222656 72.07925781 6.48632812 72.08789062 C5.67744141 72.09111328 4.86855469 72.09433594 4.03515625 72.09765625 C3.2862915 72.10289307 2.53742676 72.10812988 1.76586914 72.11352539 C0 72 0 72 -1 71 C-0.93462568 69.14277486 -0.79638141 67.28795601 -0.625 65.4375 C-0.48964844 63.91962891 -0.48964844 63.91962891 -0.3515625 62.37109375 C-0.11125532 60.06681489 0.18441753 57.76781766 0.52734375 55.4765625 C1.30542274 49.32460026 1.19027906 43.12844721 1.1875 36.9375 C1.18886963 35.64505371 1.19023926 34.35260742 1.19165039 33.02099609 C1.15158387 25.1669687 0.79269196 17.67484481 -0.66015625 9.9453125 C-1 7 -1 7 0 0 Z " fill="#92CEEE" transform="translate(232,92)"/>
<path d="M0 0 C12.23155323 -0.26482389 12.23155323 -0.26482389 15.796875 2.28515625 C17.18952817 4.45521513 18.07294026 6.58896552 19 9 C19.54745255 10.26040605 20.1013925 11.51800499 20.66015625 12.7734375 C21.89645616 15.56307131 23.11270396 18.36022118 24.31640625 21.1640625 C29.73660992 33.64897112 37.75890821 43.98638407 47.09375 53.78515625 C49 56 49 56 49 58 C41.58461124 57.8267818 38.34182163 55.46618561 33.1875 50.3125 C32.49462891 49.63840088 31.80175781 48.96430176 31.08789062 48.26977539 C16.92344747 34.22183773 7.40996514 18.46877674 0 0 Z " fill="#0F2C59" transform="translate(8,172)"/>
<path d="M0 0 C-1.56545458 3.72768466 -3.90113266 6.16519001 -6.6875 9.0625 C-18.07035084 21.27564862 -25.55492698 36.89695637 -31.7734375 52.26953125 C-33 55 -33 55 -35 57 C-38.0390625 57.1953125 -38.0390625 57.1953125 -41.625 57.125 C-43.40777344 57.09792969 -43.40777344 57.09792969 -45.2265625 57.0703125 C-46.59941406 57.03550781 -46.59941406 57.03550781 -48 57 C-42.50798825 40.63435696 -34.11086398 28.1573251 -22 16 C-20.99925302 14.97468688 -19.99924186 13.94865502 -19 12.921875 C-16.37336603 10.23927081 -13.70050417 7.60844153 -11 5 C-10.08734375 4.11248047 -10.08734375 4.11248047 -9.15625 3.20703125 C-6.11696101 0.43910735 -4.13648381 -0.60830644 0 0 Z " fill="#116DD5" transform="translate(57,26)"/>
</svg>
