<?xml version="1.0" encoding="UTF-8" standalone="no"?><!DOCTYPE svg PUBLIC "-//W3C//DTD SVG 1.1//EN" "http://www.w3.org/Graphics/SVG/1.1/DTD/svg11.dtd"><svg width="100%" height="100%" viewBox="40 0 220 300" version="1.1" xmlns="http://www.w3.org/2000/svg" xmlns:xlink="http://www.w3.org/1999/xlink" xml:space="preserve" xmlns:serif="http://www.serif.com/" style="fill-rule:evenodd;clip-rule:evenodd;stroke-linejoin:round;stroke-miterlimit:2;"><g id="Base"><path id="b" d="M50.407,63.621l49.797,28.75l99.592,-57.5l-49.796,-28.75l-99.593,57.5Z" style="fill:#3abbd9;"/><path id="o" d="M150,236.121l-49.796,-28.75l149.389,-86.25l-0,57.5l-99.593,57.5Z" style="fill:#f28237;"/><path id="p2" d="M199.796,92.371l-49.796,-28.75l49.796,-28.75l49.797,28.75l-0,57.5l-49.797,28.75l0,-57.5Z" style="fill:#be6ffd;"/><path id="g" d="M150,178.621l-49.796,-28.75l-49.797,28.75l49.797,28.75l49.796,-28.75Z" style="fill:#a1d04d;"/><path id="p" d="M100.204,207.371l-0,57.5l-49.797,28.75l0,-115l49.797,28.75Z" style="fill:#be6ffd;"/></g><g id="Soft-Shadows" serif:id="Soft Shadows" opacity="0.2"><path d="M249.593,121.121l-50.021,28.879l0.224,-23.129l49.797,-28.75l-0,23Z" style="fill:url(#_Linear1);"/><path d="M150,63.621l19.919,11.5l49.796,-28.75l-20.143,-11.63l-49.572,28.88Z" style="fill:url(#_Linear2);"/><path d="M100.204,207.371l-0,23l-49.797,-28.75l0,-23l49.797,28.75Z" style="fill:url(#_Linear3);"/><path d="M100.204,207.371l-19.919,-11.5l49.796,-28.75l19.919,11.5l-49.796,28.75Z" style="fill:url(#_Linear4);"/></g><g id="Shadows" opacity="0.22"><path d="M199.796,34.871l-2.489,-1.438l-99.593,57.5l2.49,1.438"/><path d="M249.593,63.621l-2.49,-1.438l0,60.375l2.49,-1.437"/><path d="M147.51,234.683l2.49,1.438l99.593,-57.5l-0,-57.5l-2.49,4.312l0,51.75l-99.593,57.5Z"/><path d="M52.897,289.308l-2.49,4.313l49.797,-28.75l-0,-57.5l-2.49,-1.438l-0,57.5l-44.817,25.875Z"/></g><g id="Hints" opacity="0.4"><path d="M50.407,63.621l2.49,1.437l99.593,-57.5l-2.49,-1.437l-99.593,57.5Z" style="fill:#fff;"/><path d="M50.407,293.621l2.49,-4.313l-0,-109.25l49.796,-28.75l-2.713,-1.308l-49.573,28.621l0,115Z" style="fill:#fff;"/><path d="M199.572,150l2.714,-1.567l0,-54.625l-2.49,-1.437l-0.224,57.629Z" style="fill:#fff;"/><path d="M100.204,207.371l2.489,1.437l144.41,-83.375l2.49,-4.312l-149.389,86.25Z" style="fill:#fff;"/></g><path d="M417.918,81.956c17.634,-0 30.501,3.785 38.601,11.356c8.1,7.57 12.15,17.991 12.15,31.263c-0,5.982 -0.904,11.698 -2.711,17.15c-1.806,5.452 -4.751,10.297 -8.832,14.534c-4.081,4.237 -9.517,7.586 -16.309,10.047c-6.792,2.462 -15.172,3.692 -25.142,3.692l-12.43,0l-0,48.601l-28.974,-0l0,-136.643l43.647,-0Zm-1.495,23.739l-13.178,0l-0,40.563l9.533,0c5.421,0 10.125,-0.716 14.113,-2.149c3.988,-1.433 7.072,-3.676 9.253,-6.73c2.181,-3.053 3.271,-6.978 3.271,-11.776c-0,-6.729 -1.869,-11.73 -5.608,-15.001c-3.738,-3.271 -9.533,-4.907 -17.384,-4.907Z" style="fill:#fff;fill-rule:nonzero;"/><path d="M587.18,166.166c0,8.723 -1.168,16.45 -3.505,23.179c-2.336,6.729 -5.732,12.415 -10.187,17.057c-4.455,4.642 -9.814,8.147 -16.076,10.515c-6.262,2.367 -13.318,3.551 -21.169,3.551c-7.353,0 -14.098,-1.184 -20.235,-3.551c-6.137,-2.368 -11.465,-5.873 -15.982,-10.515c-4.518,-4.642 -8.007,-10.328 -10.468,-17.057c-2.461,-6.729 -3.692,-14.456 -3.692,-23.179c0,-11.589 2.056,-21.403 6.169,-29.441c4.112,-8.038 9.969,-14.144 17.571,-18.319c7.601,-4.174 16.667,-6.262 27.198,-6.262c9.782,0 18.459,2.088 26.029,6.262c7.571,4.175 13.521,10.281 17.852,18.319c4.33,8.038 6.495,17.852 6.495,29.441Zm-72.247,0c0,6.854 0.748,12.618 2.243,17.291c1.496,4.673 3.832,8.193 7.01,10.561c3.178,2.368 7.321,3.552 12.431,3.552c5.047,-0 9.143,-1.184 12.29,-3.552c3.147,-2.368 5.452,-5.888 6.916,-10.561c1.465,-4.673 2.197,-10.437 2.197,-17.291c-0,-6.916 -0.732,-12.664 -2.197,-17.244c-1.464,-4.58 -3.785,-8.022 -6.963,-10.328c-3.177,-2.305 -7.321,-3.458 -12.43,-3.458c-7.54,0 -13.007,2.586 -16.403,7.758c-3.396,5.171 -5.094,12.929 -5.094,23.272Z" style="fill:#fff;fill-rule:nonzero;"/><rect x="610.733" y="73.17" width="28.506" height="145.429" style="fill:#fff;fill-rule:nonzero;"/><path d="M654.193,114.107l31.217,0l19.721,58.788c0.623,1.87 1.153,3.77 1.589,5.702c0.436,1.931 0.81,3.925 1.121,5.981c0.312,2.057 0.561,4.206 0.748,6.449l0.561,0c0.374,-3.364 0.888,-6.511 1.542,-9.439c0.654,-2.929 1.48,-5.826 2.477,-8.693l19.347,-58.788l30.562,0l-44.208,117.857c-2.679,7.228 -6.169,13.256 -10.468,18.085c-4.299,4.829 -9.237,8.459 -14.814,10.889c-5.577,2.43 -11.698,3.645 -18.365,3.645c-3.24,-0 -6.044,-0.171 -8.412,-0.514c-2.368,-0.343 -4.393,-0.701 -6.075,-1.075l-0,-22.618c1.308,0.311 2.959,0.592 4.953,0.841c1.994,0.249 4.082,0.374 6.262,0.374c3.988,-0 7.415,-0.841 10.281,-2.524c2.867,-1.682 5.265,-3.941 7.197,-6.776c1.932,-2.835 3.458,-5.935 4.58,-9.299l1.682,-5.141l-41.498,-103.744Z" style="fill:#fff;fill-rule:nonzero;"/><path d="M941.967,218.599l-28.881,-0l0,-58.975l-54.115,-0l0,58.975l-28.973,-0l-0,-136.643l28.973,-0l0,53.554l54.115,0l0,-53.554l28.881,-0l-0,136.643Z" style="fill:#fff;fill-rule:nonzero;"/><path d="M1017.02,111.957c14.019,0 24.767,3.054 32.244,9.16c7.477,6.106 11.216,15.39 11.216,27.852l-0,69.63l-19.908,-0l-5.514,-14.206l-0.748,-0c-2.991,3.738 -6.044,6.791 -9.159,9.159c-3.116,2.368 -6.698,4.112 -10.748,5.234c-4.05,1.121 -8.973,1.682 -14.768,1.682c-6.168,0 -11.698,-1.184 -16.589,-3.551c-4.892,-2.368 -8.739,-5.998 -11.543,-10.889c-2.804,-4.891 -4.206,-11.106 -4.206,-18.646c0,-11.091 3.894,-19.269 11.683,-24.534c7.789,-5.265 19.472,-8.178 35.049,-8.739l18.132,-0.56l-0,-4.58c-0,-5.483 -1.433,-9.502 -4.3,-12.057c-2.866,-2.555 -6.854,-3.832 -11.963,-3.832c-5.047,0 -10.001,0.717 -14.861,2.15c-4.86,1.433 -9.72,3.24 -14.58,5.421l-9.44,-19.254c5.546,-2.928 11.761,-5.234 18.646,-6.916c6.885,-1.682 14.004,-2.524 21.357,-2.524Zm15.141,58.228l-11.029,0.374c-9.222,0.249 -15.624,1.9 -19.207,4.953c-3.582,3.054 -5.374,7.072 -5.374,12.057c0,4.362 1.277,7.462 3.832,9.3c2.555,1.838 5.888,2.757 10.001,2.757c6.106,-0 11.262,-1.807 15.468,-5.421c4.206,-3.614 6.309,-8.754 6.309,-15.421l-0,-8.599Z" style="fill:#fff;fill-rule:nonzero;"/><path d="M1114.69,218.599l-39.816,-104.492l29.815,0l20.188,59.536c1.122,3.489 2.01,7.166 2.664,11.029c0.654,3.863 1.106,7.321 1.355,10.374l0.748,0c0.187,-3.302 0.638,-6.823 1.355,-10.561c0.717,-3.739 1.667,-7.353 2.851,-10.842l20.094,-59.536l29.815,0l-39.815,104.492l-29.254,-0Z" style="fill:#fff;fill-rule:nonzero;"/><path d="M1241.8,112.144c9.658,0 17.976,1.854 24.954,5.561c6.979,3.708 12.369,9.082 16.169,16.123c3.801,7.041 5.702,15.639 5.702,25.796l-0,13.832l-67.387,0c0.311,8.038 2.726,14.347 7.243,18.927c4.518,4.579 10.795,6.869 18.833,6.869c6.667,0 12.773,-0.685 18.319,-2.056c5.545,-1.371 11.246,-3.427 17.104,-6.169l-0,22.058c-5.172,2.554 -10.577,4.424 -16.216,5.607c-5.639,1.184 -12.478,1.776 -20.516,1.776c-10.467,0 -19.736,-1.931 -27.805,-5.794c-8.069,-3.864 -14.393,-9.752 -18.973,-17.665c-4.58,-7.913 -6.869,-17.883 -6.869,-29.908c-0,-12.213 2.071,-22.385 6.215,-30.516c4.143,-8.131 9.923,-14.238 17.337,-18.319c7.415,-4.081 16.045,-6.122 25.89,-6.122Zm0.187,20.282c-5.546,-0 -10.141,1.776 -13.786,5.327c-3.645,3.552 -5.748,9.129 -6.309,16.73l40.002,0c-0.062,-4.237 -0.825,-8.006 -2.29,-11.309c-1.464,-3.302 -3.645,-5.919 -6.542,-7.851c-2.897,-1.931 -6.589,-2.897 -11.075,-2.897Z" style="fill:#fff;fill-rule:nonzero;"/><path d="M1371.15,112.144c11.153,0 20.125,3.038 26.917,9.113c6.792,6.075 10.188,15.811 10.188,29.207l-0,68.135l-28.507,-0l0,-61.032c0,-7.477 -1.355,-13.116 -4.065,-16.916c-2.711,-3.801 -6.963,-5.702 -12.758,-5.702c-8.723,0 -14.674,2.96 -17.852,8.879c-3.177,5.92 -4.766,14.456 -4.766,25.609l-0,49.162l-28.506,-0l-0,-104.492l21.777,0l3.832,13.365l1.588,0c2.243,-3.614 5.032,-6.542 8.365,-8.785c3.334,-2.243 7.041,-3.895 11.122,-4.954c4.082,-1.059 8.303,-1.589 12.665,-1.589Z" style="fill:#fff;fill-rule:nonzero;"/><defs><linearGradient id="_Linear1" x1="0" y1="0" x2="1" y2="0" gradientUnits="userSpaceOnUse" gradientTransform="matrix(9.95929,17.25,-17.25,9.95929,239.634,103.871)"><stop offset="0" style="stop-color:#000;stop-opacity:0"/><stop offset="0.53" style="stop-color:#000;stop-opacity:0.23"/><stop offset="1" style="stop-color:#000;stop-opacity:1"/></linearGradient><linearGradient id="_Linear2" x1="0" y1="0" x2="1" y2="0" gradientUnits="userSpaceOnUse" gradientTransform="matrix(-9.95929,-17.25,17.25,-9.95929,209.756,52.1207)"><stop offset="0" style="stop-color:#000;stop-opacity:0"/><stop offset="0.53" style="stop-color:#000;stop-opacity:0.23"/><stop offset="1" style="stop-color:#000;stop-opacity:1"/></linearGradient><linearGradient id="_Linear3" x1="0" y1="0" x2="1" y2="0" gradientUnits="userSpaceOnUse" gradientTransform="matrix(9.95929,-17.25,17.25,9.95929,90.2442,224.621)"><stop offset="0" style="stop-color:#000;stop-opacity:0"/><stop offset="0.53" style="stop-color:#000;stop-opacity:0.23"/><stop offset="1" style="stop-color:#000;stop-opacity:1"/></linearGradient><linearGradient id="_Linear4" x1="0" y1="0" x2="1" y2="0" gradientUnits="userSpaceOnUse" gradientTransform="matrix(9.95929,17.25,-17.25,9.95929,100.204,184.371)"><stop offset="0" style="stop-color:#000;stop-opacity:0"/><stop offset="0.53" style="stop-color:#000;stop-opacity:0.23"/><stop offset="1" style="stop-color:#000;stop-opacity:1"/></linearGradient></defs></svg>