<svg width="410" height="498" viewBox="0 0 410 498" fill="none" xmlns="http://www.w3.org/2000/svg">
<path fill-rule="evenodd" clip-rule="evenodd" d="M178.287 105.494C178.287 97.0258 169.12 91.7334 161.787 95.9673L5.61391 186.135C2.21051 188.1 0.113937 191.731 0.113937 195.661V388.697C0.113937 392.627 2.21054 396.259 5.61397 398.224L172.787 494.74C176.19 496.705 180.383 496.705 183.787 494.74L350.961 398.224C354.365 396.259 356.462 392.627 356.462 388.697V208.849C356.462 200.382 347.295 195.089 339.961 199.323L194.787 283.142C187.454 287.376 178.287 282.084 178.287 273.616V105.494Z" fill="#FFA24D"/>
<path fill-rule="evenodd" clip-rule="evenodd" d="M248.5 9.52631C241.167 5.2924 232 10.5848 232 19.0526V186.196C232 194.664 241.167 199.956 248.5 195.722L393.252 112.152C400.586 107.918 400.586 97.3332 393.252 93.0993L248.5 9.52631Z" fill="#FFA24D"/>
</svg>
